# xmcd CD database file
#
# Track frame offsets:
#	150
#	11425
#	19562
#	30172
#	40390
#	57137
#	68497
#	80710
#	94027
#	105532
#	112217
#	118982
#	156117
#	169602
#	181670
#	192880
#	206180
#	213760
#	220395
#	233290
#	245617
#	257630
#	270532
#	284997
#	298522
#
# Disc length: 4088 seconds
#
# Revision: 0
# Processed by: cddbd v1.5.2PL0 Copyright (c) Steve Scherf et al.
# Submitted via: CDex 1.51
#
DISCID=5f0ff619
DTITLE=Billy Mayerl - Vol. 1 - Original Recordings 1925-1936
DYEAR=1925
DGENRE=Jazz
TTITLE0=Marigold
TTITLE1=Puppets: i. Golliwog
TTITLE2=Puppets Suite: ii. Judy
TTITLE3=Puppets Suite: iii. Punch
TTITLE4=The Desert Song (Selection)
TTITLE5=All-Of-A-Twist
TTITLE6=Eskimo Shivers
TTITLE7=Nippy (Medley)
TTITLE8=Three Miniatures: i. Cobweb
TTITLE9=Three Miniatures: ii. Muffin Man
TTITLE10=Three Miniatures: iii. Clockwork
TTITLE11=Sennen Cove
TTITLE12=Jazzaristrix
TTITLE13=Virginia Creeper
TTITLE14=Limehouse Blues
TTITLE15=Mignonette
TTITLE16=Three Dances: i. English Dance
TTITLE17=Three Dances: ii. Cricket Dance
TTITLE18=Three Dances: iii. Harmonica Dance
TTITLE19=Indispensable You
TTITLE20=Honky-Tonk
TTITLE21=Honeysuckle
TTITLE22=Sportling Love (Selection)
TTITLE23=Have A Heart
TTITLE24=Hollyhock
EXTD=YEAR: 1925
EXTT0=
EXTT1=
EXTT2=
EXTT3=
EXTT4=
EXTT5=
EXTT6=
EXTT7=
EXTT8=
EXTT9=
EXTT10=
EXTT11=
EXTT12=
EXTT13=
EXTT14=
EXTT15=
EXTT16=
EXTT17=
EXTT18=
EXTT19=
EXTT20=
EXTT21=
EXTT22=
EXTT23=
EXTT24=
PLAYORDER=
